# xmcd
#
# Track frame offsets: 
#        150
#        13067
#        31915
#        44095
#        58515
#        75142
#        87722
#        99470
#        118175
#        137735
#
# Disc length: 2056 seconds
#
# Revision: 3
# Processed by: cddbd v1.4PL0 Copyright (c) Steve Scherf et al.
# Submitted via: ExactAudioCopy v0.90b3
#
DISCID=7f08060a
DTITLE=Jim Stafford - The Ultimate Jim Stafford
DYEAR=1900
DGENRE=Country
TTITLE0=Coyote On A Barbed Wire Fence
TTITLE1=Gamble And Chance
TTITLE2=Driving Back To Boulder
TTITLE3=Talk That Guitar
TTITLE4=Don't Forget The Hard Times
TTITLE5=Spiders And Snakes
TTITLE6=Wildwood Weed
TTITLE7=My Girl Bill
TTITLE8=Cow Patti
TTITLE9=Mr. Bojangles
EXTD=
EXTT0=
EXTT1=
EXTT2=
EXTT3=
EXTT4=
EXTT5=
EXTT6=
EXTT7=
EXTT8=
EXTT9=
PLAYORDER=
